<svg viewBox="0 0 40 40" fill="none" xmlns="http://www.w3.org/2000/svg">
<path fill-rule="evenodd" clip-rule="evenodd" d="M27.0932 32.9287C27.6342 32.3928 27.6379 31.5241 27.0895 30.9882L18.9804 23.0471L18.8372 22.9248C18.2891 22.5171 17.5056 22.5597 17.008 23.0526C16.7385 23.3196 16.6009 23.6708 16.6009 24.0201C16.6009 24.3712 16.7385 24.7242 17.0117 24.9912L25.1208 32.9342L25.2641 33.0565C25.8122 33.4642 26.5956 33.4216 27.0932 32.9287ZM27.2152 8.86941C27.6337 8.33158 27.5892 7.56068 27.0933 7.06946C26.5505 6.5336 25.6675 6.53176 25.1209 7.06763L12.9108 19.0286L12.7855 19.1688C12.5955 19.4128 12.5 19.7056 12.5 19.9998C12.5 20.3491 12.6376 20.7003 12.9071 20.9673C13.45 21.505 14.333 21.5068 14.8796 20.9709L27.0896 9.00993L27.2152 8.86941Z" fill="currentColor"/>
</svg>
