<svg viewBox="0 0 30 30" fill="none" xmlns="http://www.w3.org/2000/svg">
<path fill-rule="evenodd" clip-rule="evenodd" d="M13.3373 4.77273C13.3373 4.20818 13.8023 3.75 14.3752 3.75C14.9482 3.75 15.4131 4.20818 15.4131 4.77273V25.2273C15.4131 25.6418 15.1599 26.0141 14.771 26.1723C14.6437 26.2241 14.5094 26.25 14.3752 26.25C14.1053 26.25 13.8382 26.1464 13.6403 25.9486L5.30222 17.6986C4.89811 17.2991 4.89949 16.6514 5.30498 16.2532C5.71186 15.855 6.36922 15.855 6.77332 16.2559L13.3373 22.7509V4.77273ZM21.9767 16.2558C22.3808 15.8549 23.0381 15.8549 23.445 16.253C23.8505 16.6512 23.8519 17.299 23.4478 17.6999L18.849 22.249C18.6456 22.4508 18.3799 22.5503 18.1128 22.5503C17.8484 22.5503 17.5841 22.4508 17.3807 22.2517C16.9738 21.8535 16.9724 21.2071 17.3779 20.8062L21.9767 16.2558Z" fill="currentColor"/>
</svg>
