<svg viewBox="0 0 40 40" fill="none" xmlns="http://www.w3.org/2000/svg">
<path fill-rule="evenodd" clip-rule="evenodd" d="M12.9068 7.07131C12.3658 7.60717 12.3621 8.4759 12.9105 9.01177L21.0196 16.9529L21.1628 17.0752C21.7109 17.4829 22.4944 17.4403 22.992 16.9474C23.2615 16.6804 23.3991 16.3292 23.3991 15.9799C23.3991 15.6287 23.2615 15.2758 22.9883 15.0087L14.8792 7.06582L14.7359 6.94347C14.1878 6.53581 13.4044 6.57842 12.9068 7.07131ZM12.7848 31.1306C12.3663 31.6684 12.4108 32.4393 12.9067 32.9305C13.4495 33.4664 14.3325 33.4682 14.8791 32.9323L27.0892 20.9713L27.2145 20.8312C27.4045 20.5872 27.5 20.2943 27.5 20.0002C27.5 19.6509 27.3624 19.2997 27.0929 19.0327C26.55 18.495 25.667 18.4932 25.1204 19.029L12.9104 30.99L12.7848 31.1306Z" fill="currentColor"/>
</svg>
