<svg viewBox="0 0 30 30" fill="none" xmlns="http://www.w3.org/2000/svg">
<path fill-rule="evenodd" clip-rule="evenodd" d="M25.2272 16.6627C25.7918 16.6627 26.2499 16.1977 26.2499 15.6248C26.2499 15.0518 25.7918 14.5869 25.2272 14.5869L4.77267 14.5869C4.35812 14.5869 3.98585 14.8401 3.82767 15.229C3.77585 15.3563 3.74994 15.4906 3.74994 15.6248C3.74994 15.8947 3.85358 16.1618 4.0513 16.3597L12.3013 24.6978C12.7008 25.1019 13.3486 25.1005 13.7468 24.695C14.1449 24.2881 14.1449 23.6308 13.744 23.2267L7.24903 16.6627L25.2272 16.6627ZM13.7442 8.02332C14.1451 7.61922 14.1451 6.96186 13.7469 6.55498C13.3487 6.14949 12.701 6.14811 12.3001 6.55222L7.75098 11.151C7.54917 11.3544 7.44962 11.6201 7.44962 11.8872C7.44962 12.1516 7.54917 12.4159 7.74826 12.6193C8.14644 13.0262 8.7928 13.0276 9.19371 12.6221L13.7442 8.02332Z" fill="currentColor"/>
</svg>
