<svg viewBox="0 0 25 25" fill="none" xmlns="http://www.w3.org/2000/svg">
<path fill-rule="evenodd" clip-rule="evenodd" d="M6.59128 8.6953L7.21941 16.1661C7.26524 16.7411 7.73503 17.1724 8.30899 17.1724H8.31316H19.6788H19.6809C20.2236 17.1724 20.6871 16.7682 20.7642 16.2318L21.7538 9.39947C21.7767 9.23697 21.7361 9.07447 21.6371 8.94322C21.5392 8.81092 21.3955 8.72551 21.233 8.70259C21.0152 8.71092 11.9809 8.69842 6.59128 8.6953ZM8.30691 18.7349C6.93503 18.7349 5.77358 17.664 5.66212 16.2943L4.70795 4.94634L3.13816 4.67551C2.71212 4.60051 2.42774 4.19738 2.50066 3.77134C2.57566 3.3453 2.98712 3.06822 3.40378 3.13488L5.57045 3.50988C5.91941 3.57134 6.18503 3.86092 6.21524 4.21509L6.46003 7.1328C21.3309 7.13905 21.3788 7.14634 21.4507 7.15467C22.0309 7.23905 22.5413 7.54217 22.8892 8.00884C23.2371 8.47447 23.3829 9.04842 23.2996 9.62342L22.3111 16.4547C22.1246 17.7547 20.9954 18.7349 19.683 18.7349H19.6777H8.31524H8.30691Z" fill="currentColor"/>
<path fill-rule="evenodd" clip-rule="evenodd" d="M18.0079 12.5457H15.1204C14.6881 12.5457 14.3391 12.1957 14.3391 11.7644C14.3391 11.3332 14.6881 10.9832 15.1204 10.9832H18.0079C18.4391 10.9832 18.7891 11.3332 18.7891 11.7644C18.7891 12.1957 18.4391 12.5457 18.0079 12.5457Z" fill="currentColor"/>
<path fill-rule="evenodd" clip-rule="evenodd" d="M7.85872 21.5645C8.17227 21.5645 8.42539 21.8176 8.42539 22.1311C8.42539 22.4447 8.17227 22.6988 7.85872 22.6988C7.54414 22.6988 7.29102 22.4447 7.29102 22.1311C7.29102 21.8176 7.54414 21.5645 7.85872 21.5645Z" fill="currentColor"/>
<mask id="mask0_561_2987" style="mask-type:alpha" maskUnits="userSpaceOnUse" x="7" y="21" width="2" height="2">
<path fill-rule="evenodd" clip-rule="evenodd" d="M7.29053 22.1309C7.29053 22.4455 7.54365 22.6996 7.85928 22.6996C8.17282 22.6996 8.42594 22.4455 8.42594 22.1309C8.42594 21.8173 8.17282 21.5642 7.85928 21.5642C7.54365 21.5642 7.29053 21.8173 7.29053 22.1309Z" fill="white"/>
</mask>
<g mask="url(#mask0_561_2987)">
<path fill-rule="evenodd" clip-rule="evenodd" d="M2.08325 27.907H13.6343V16.356H2.08325V27.907Z" fill="currentColor"/>
</g>
<path fill-rule="evenodd" clip-rule="evenodd" d="M7.85768 21.9176C7.73997 21.9176 7.64414 22.0134 7.64414 22.1311C7.64414 22.3676 8.07227 22.3676 8.07227 22.1311C8.07227 22.0134 7.97539 21.9176 7.85768 21.9176ZM7.85768 23.4801C7.11393 23.4801 6.50977 22.8749 6.50977 22.1311C6.50977 21.3874 7.11393 20.7832 7.85768 20.7832C8.60143 20.7832 9.20664 21.3874 9.20664 22.1311C9.20664 22.8749 8.60143 23.4801 7.85768 23.4801Z" fill="currentColor"/>
<path fill-rule="evenodd" clip-rule="evenodd" d="M19.609 21.5645C19.9225 21.5645 20.1767 21.8176 20.1767 22.1311C20.1767 22.4447 19.9225 22.6988 19.609 22.6988C19.2944 22.6988 19.0413 22.4447 19.0413 22.1311C19.0413 21.8176 19.2944 21.5645 19.609 21.5645Z" fill="currentColor"/>
<mask id="mask1_561_2987" style="mask-type:alpha" maskUnits="userSpaceOnUse" x="19" y="21" width="2" height="2">
<path fill-rule="evenodd" clip-rule="evenodd" d="M19.0415 22.1309C19.0415 22.4455 19.2946 22.6996 19.6092 22.6996C19.9217 22.6996 20.1769 22.4455 20.1769 22.1309C20.1769 21.8173 19.9217 21.5642 19.6092 21.5642C19.2946 21.5642 19.0415 21.8173 19.0415 22.1309Z" fill="white"/>
</mask>
<g mask="url(#mask1_561_2987)">
<path fill-rule="evenodd" clip-rule="evenodd" d="M13.8333 27.907H25.3853V16.356H13.8333V27.907Z" fill="currentColor"/>
</g>
<path fill-rule="evenodd" clip-rule="evenodd" d="M19.6082 21.9176C19.4915 21.9176 19.3957 22.0134 19.3957 22.1311C19.3967 22.3697 19.8238 22.3676 19.8228 22.1311C19.8228 22.0134 19.7259 21.9176 19.6082 21.9176ZM19.6082 23.4801C18.8644 23.4801 18.2603 22.8749 18.2603 22.1311C18.2603 21.3874 18.8644 20.7832 19.6082 20.7832C20.353 20.7832 20.9582 21.3874 20.9582 22.1311C20.9582 22.8749 20.353 23.4801 19.6082 23.4801Z" fill="currentColor"/>
</svg>
