<svg viewBox="0 0 50 50" fill="none" xmlns="http://www.w3.org/2000/svg">
<path fill-rule="evenodd" clip-rule="evenodd" d="M44.2587 24.1206C45.1274 24.1206 45.8337 23.4144 45.8337 22.5456V17.1935C45.8337 9.14978 40.8128 4.16644 32.8191 4.16644H17.1941C9.15033 4.16644 4.16699 9.14978 4.16699 17.1998V32.8248C4.16699 40.8498 9.15033 45.8331 17.1941 45.8331H32.8253C40.8503 45.8331 45.8337 40.8498 45.8274 32.8185C45.8274 31.9394 45.1128 31.2248 44.2337 31.2248C43.3524 31.2248 42.6399 31.9394 42.6399 32.8185C42.6399 39.1394 39.1587 42.6394 32.8191 42.6394H17.1941C10.8545 42.6394 7.35449 39.1394 7.35449 32.8185V17.1935C7.35449 10.8539 10.8545 7.35394 17.2003 7.35394H32.8253C39.167 7.35394 42.6462 10.8331 42.6462 17.1935V22.4894V22.4935C42.6482 23.3727 43.3607 24.0831 44.2399 24.0831V24.1206H44.2587ZM20.4478 27.386L19.0228 28.811C18.3874 29.4152 18.352 30.4173 18.9437 31.0652L18.9895 31.0985C19.5978 31.7069 20.577 31.7235 21.2041 31.136L22.6228 29.7173C23.2666 29.1173 23.302 28.1089 22.702 27.4631C22.0999 26.8214 21.0916 26.7839 20.4478 27.386ZM31.5474 30.84C30.9349 31.4504 29.9453 31.4629 29.3182 30.865L29.2391 30.7879L19.2807 20.8317C18.6724 20.1858 18.6599 19.1817 19.2537 18.5233C19.862 17.9004 20.8578 17.8879 21.4807 18.4962C21.487 18.5004 21.4912 18.5046 21.4974 18.5108L25.3828 22.3983L28.9182 18.8608C29.5537 18.2546 30.5557 18.2608 31.1849 18.8754C31.2974 18.9879 31.3932 19.115 31.4662 19.2567C31.8266 19.8837 31.7224 20.6712 31.212 21.1837L27.6912 24.7025L31.5203 28.5337C32.1662 29.1442 32.1912 30.1629 31.5787 30.8067C31.5739 30.8138 31.5678 30.8195 31.5615 30.8255C31.5568 30.83 31.5519 30.8346 31.5474 30.84Z" fill="currentColor"/>
</svg>
