<svg viewBox="0 0 40 40" fill="none" xmlns="http://www.w3.org/2000/svg">
<path fill-rule="evenodd" clip-rule="evenodd" d="M4.67273 13.9222C4.20583 18.2604 4.22664 23.2637 4.87634 27.5842C5.23584 29.9749 7.18696 31.8076 9.59541 32.017L12.1125 32.2358C17.3609 32.692 22.639 32.692 27.8874 32.2358L30.4044 32.017C32.8129 31.8076 34.764 29.9749 35.1235 27.5842C35.7732 23.2637 35.7941 18.2606 35.3271 13.9225C35.2668 13.4195 35.1989 12.9173 35.1235 12.4159C34.764 10.0252 32.8129 8.19246 30.4044 7.9831L27.8874 7.76429C22.639 7.30806 17.3609 7.30806 12.1125 7.7643L9.5954 7.9831C7.18696 8.19246 5.23584 10.0252 4.87634 12.4159C4.80096 12.9172 4.73309 13.4194 4.67273 13.9222ZM12.329 10.2549C17.4333 9.81119 22.5665 9.81119 27.6709 10.2549L30.1879 10.4737C31.4451 10.583 32.4636 11.5397 32.6513 12.7876C32.6708 12.9172 32.6897 13.0469 32.7082 13.1766L23.4398 18.3257C21.3005 19.5142 18.6992 19.5142 16.5599 18.3257L7.29166 13.1766C7.3101 13.0469 7.32906 12.9172 7.34855 12.7876C7.53621 11.5397 8.55469 10.583 9.81191 10.4737L12.329 10.2549ZM33.0141 15.8665C33.3374 19.6461 33.2164 23.4542 32.6513 27.2125C32.4636 28.4604 31.4451 29.4171 30.1879 29.5264L27.6709 29.7452C22.5665 30.1889 17.4333 30.1889 12.329 29.7452L9.81191 29.5264C8.55469 29.4171 7.53621 28.4604 7.34855 27.2125C6.7834 23.4542 6.66246 19.6461 6.98575 15.8666L15.3458 20.511C18.2402 22.119 21.7596 22.119 24.6539 20.511L33.0141 15.8665Z" fill="currentColor"/>
</svg>
