<svg viewBox="0 0 30 30" fill="none" xmlns="http://www.w3.org/2000/svg">
<path fill-rule="evenodd" clip-rule="evenodd" d="M12.6001 23.2412H4.72388C4.20638 23.2412 3.78638 22.8212 3.78638 22.3037C3.78638 21.7862 4.20638 21.3662 4.72388 21.3662H12.6001C13.1176 21.3662 13.5376 21.7862 13.5376 22.3037C13.5376 22.8212 13.1176 23.2412 12.6001 23.2412Z" fill="currentColor"/>
<path fill-rule="evenodd" clip-rule="evenodd" d="M23.9886 11.1255H16.1136C15.5961 11.1255 15.1761 10.7055 15.1761 10.188C15.1761 9.67049 15.5961 9.25049 16.1136 9.25049H23.9886C24.5061 9.25049 24.9261 9.67049 24.9261 10.188C24.9261 10.7055 24.5061 11.1255 23.9886 11.1255Z" fill="currentColor"/>
<mask id="mask0_170_1863" style="mask-type:luminance" maskUnits="userSpaceOnUse" x="3" y="6" width="9" height="8">
<path fill-rule="evenodd" clip-rule="evenodd" d="M3.75 6.25049H11.5322V13.99H3.75V6.25049Z" fill="white"/>
</mask>
<g mask="url(#mask0_170_1863)">
<path fill-rule="evenodd" clip-rule="evenodd" d="M7.64101 8.125C6.52976 8.125 5.62476 9.02 5.62476 10.1212C5.62476 11.2213 6.52976 12.115 7.64101 12.115C8.75351 12.115 9.65726 11.2213 9.65726 10.1212C9.65726 9.02 8.75351 8.125 7.64101 8.125ZM7.64101 13.99C5.49601 13.99 3.74976 12.255 3.74976 10.1212C3.74976 7.9875 5.49601 6.25 7.64101 6.25C9.78726 6.25 11.5323 7.9875 11.5323 10.1212C11.5323 12.255 9.78726 13.99 7.64101 13.99Z" fill="currentColor"/>
</g>
<path fill-rule="evenodd" clip-rule="evenodd" d="M21.7346 20.2598C20.6221 20.2598 19.7171 21.1548 19.7171 22.2548C19.7171 23.356 20.6221 24.2498 21.7346 24.2498C22.8459 24.2498 23.7496 23.356 23.7496 22.2548C23.7496 21.1548 22.8459 20.2598 21.7346 20.2598ZM21.7346 26.1248C19.5884 26.1248 17.8421 24.3885 17.8421 22.2548C17.8421 20.121 19.5884 18.3848 21.7346 18.3848C23.8796 18.3848 25.6246 20.121 25.6246 22.2548C25.6246 24.3885 23.8796 26.1248 21.7346 26.1248Z" fill="currentColor"/>
</svg>
