<svg viewBox="0 0 35 35" fill="none" xmlns="http://www.w3.org/2000/svg">
<path d="M32.0835 25.0835C32.0835 26.396 31.7189 27.6355 31.0627 28.6855C29.8522 30.7126 27.6356 32.0835 25.0835 32.0835C22.5314 32.0835 20.3002 30.7126 19.1043 28.6855C18.4627 27.6355 18.0835 26.396 18.0835 25.0835C18.0835 21.2189 21.2189 18.0835 25.0835 18.0835C28.9481 18.0835 32.0835 21.2189 32.0835 25.0835Z" stroke="currentColor" stroke-width="1.5" stroke-miterlimit="10" stroke-linecap="round" stroke-linejoin="round"/>
<path d="M22.3564 25.0836L24.0773 26.8044L27.8106 23.3628" stroke="currentColor" stroke-width="1.5" stroke-linecap="round" stroke-linejoin="round"/>
<path d="M32.0832 12.6731C32.0832 15.546 31.3394 18.0835 30.1728 20.2856C28.8894 18.9293 27.0811 18.0836 25.0832 18.0836C21.2186 18.0836 18.0832 21.219 18.0832 25.0836C18.0832 26.8773 18.7686 28.5107 19.8769 29.7502C19.3373 29.9982 18.8415 30.2023 18.404 30.3481C17.9082 30.5231 17.0915 30.5231 16.5957 30.3481C12.3665 28.9044 2.9165 22.8815 2.9165 12.6731C2.9165 8.16687 6.54776 4.521 11.0248 4.521C13.6644 4.521 16.0269 5.80439 17.4998 7.77314C18.9728 5.80439 21.3353 4.521 23.9748 4.521C28.4519 4.521 32.0832 8.16687 32.0832 12.6731Z" stroke="currentColor" stroke-width="1.5" stroke-linecap="round" stroke-linejoin="round"/>
</svg>
