<svg viewBox="0 0 35 35" fill="none" xmlns="http://www.w3.org/2000/svg">
<path d="M25.0835 18.0835C21.2189 18.0835 18.0835 21.2189 18.0835 25.0835C18.0835 26.396 18.4481 27.6356 19.1043 28.6856C20.3147 30.7127 22.5314 32.0835 25.0835 32.0835C27.6356 32.0835 29.8668 30.7127 31.0627 28.6856C31.7043 27.6356 32.0835 26.396 32.0835 25.0835C32.0835 21.2189 28.9481 18.0835 25.0835 18.0835ZM28.5543 24.1647L24.821 27.6064C24.6168 27.796 24.3397 27.8981 24.0772 27.8981C23.8002 27.8981 23.5231 27.796 23.3043 27.5772L21.5835 25.8564C21.1606 25.4335 21.1606 24.7335 21.5835 24.3106C22.0064 23.8877 22.7064 23.8877 23.1293 24.3106L24.1064 25.2877L27.0668 22.546C27.5043 22.1377 28.2043 22.1668 28.6127 22.6043C29.021 23.0564 28.9918 23.7564 28.5543 24.1647Z" fill="currentColor"/>
<path d="M32.0832 12.7312C32.0832 14.4666 31.8061 16.0708 31.3248 17.5583C31.2373 17.8645 30.8728 17.952 30.6103 17.7624C29.0207 16.5812 27.0811 15.9541 25.0832 15.9541C20.0228 15.9541 15.8957 20.0812 15.8957 25.1416C15.8957 26.7166 16.304 28.2624 17.0769 29.6333C17.3103 30.0416 17.0332 30.5666 16.5957 30.4062C13.0811 29.2104 5.979 24.8499 3.67484 17.5583C3.19359 16.0708 2.9165 14.4666 2.9165 12.7312C2.9165 8.22493 6.54775 4.5791 11.0248 4.5791C13.6644 4.5791 16.0269 5.86243 17.4998 7.83118C18.9728 5.86243 21.3353 4.5791 23.9748 4.5791C28.4519 4.5791 32.0832 8.22493 32.0832 12.7312Z" fill="currentColor"/>
</svg>
