<svg viewBox="0 0 24 24" fill="none" xmlns="http://www.w3.org/2000/svg">
<path d="M17 2H7C4.23858 2 2 4.23858 2 7V17C2 19.7614 4.23858 22 7 22H17C19.7614 22 22 19.7614 22 17V7C22 4.23858 19.7614 2 17 2Z" stroke="currentColor" stroke-width="2" stroke-linecap="round" stroke-linejoin="round"/>
<path d="M16 11.37C16.1234 12.2022 15.9812 13.0522 15.5937 13.799C15.2062 14.5458 14.5931 15.1514 13.8416 15.5297C13.0901 15.9079 12.2384 16.0396 11.4077 15.9059C10.5771 15.7723 9.80971 15.3801 9.21479 14.7852C8.61987 14.1902 8.22768 13.4229 8.09402 12.5922C7.96035 11.7615 8.09202 10.9099 8.47028 10.1584C8.84854 9.40685 9.45414 8.79374 10.2009 8.40624C10.9477 8.01874 11.7977 7.87658 12.63 8C13.4789 8.12588 14.2648 8.52146 14.8716 9.1283C15.4785 9.73515 15.8741 10.5211 16 11.37Z" stroke="currentColor" stroke-width="2" stroke-linecap="round" stroke-linejoin="round"/>
<path d="M17.9946 6.42666C18.01 6.53069 17.9922 6.63694 17.9438 6.73028C17.8954 6.82363 17.8187 6.89933 17.7248 6.94662C17.6309 6.9939 17.5244 7.01036 17.4206 6.99365C17.3167 6.97694 17.2208 6.92792 17.1464 6.85355C17.0721 6.77919 17.0231 6.68327 17.0064 6.57943C16.9896 6.4756 17.0061 6.36915 17.0534 6.27521C17.1007 6.18127 17.1764 6.10463 17.2697 6.05619C17.3631 6.00775 17.4693 5.98998 17.5733 6.00541C17.6795 6.02114 17.7777 6.07059 17.8536 6.14645C17.9294 6.2223 17.9789 6.32054 17.9946 6.42666Z" stroke="currentColor" stroke-width="2" stroke-linecap="round" stroke-linejoin="round"/>
</svg>
