<svg viewBox="0 0 51 40" fill="none" xmlns="http://www.w3.org/2000/svg">
<g clip-path="url(#clip0_126_400)">
<path d="M51 12.8989V10.2771H34.4401L34.1945 11.2698L34.1554 11.4467V11.608C34.1554 16.0017 31.1739 19.6662 27.2503 20.4401V17.6553C29.6601 17.0427 31.4556 14.7688 31.4556 12.0634C31.4556 9.35801 29.6607 7.0841 27.2503 6.47155V0H24.654V6.47214C22.243 7.0835 20.4469 9.35802 20.4469 12.0646C20.4469 14.7712 22.243 17.0451 24.654 17.6571V20.522C20.4918 19.9686 17.26 16.1839 17.26 11.6092L17.1079 10.2777H0V12.8995H14.7312C14.7673 13.2389 14.8182 13.5742 14.8815 13.9041L0.572868 18.8535L1.41441 21.3336L15.6538 16.4075C15.7533 16.6369 15.8604 16.8616 15.9734 17.0828L3.95503 26.834L5.58132 28.8778L17.4216 19.2712C17.6536 19.5485 17.8986 19.8138 18.1542 20.0666L9.22565 32.9798L11.3544 34.4804L20.2107 21.6712C21.5429 22.478 23.0479 23.0033 24.6534 23.1635V27.9145L17.9613 36.9946L20.0439 38.5598L24.6534 32.3051V40H27.2497V32.5125L31.7066 38.5598L33.7891 36.9946L27.2497 28.1213V23.1019C28.5558 22.9089 29.7885 22.4732 30.9076 21.8427L39.6456 34.4804L41.7743 32.9798L33.0109 20.3051C33.295 20.0409 33.5672 19.763 33.824 19.4702L45.4187 28.8778L47.045 26.834L35.3178 17.3188C35.4562 17.0624 35.5864 16.8007 35.7066 16.5324L49.5868 21.3342L50.4283 18.8541L36.5061 14.0379C36.5818 13.6644 36.6422 13.2849 36.683 12.8989H51ZM23.0425 12.064C23.0425 10.3363 24.3469 8.93072 25.9507 8.93072C27.5545 8.93072 28.8588 10.3363 28.8588 12.064C28.8588 13.7917 27.5545 15.1973 25.9507 15.1973C24.3469 15.1973 23.0425 13.7923 23.0425 12.064Z" fill="currentColor"/>
</g>
<defs>
<clipPath id="clip0_126_400">
<rect width="51" height="40" fill="white"/>
</clipPath>
</defs>
</svg>
