<svg viewBox="0 0 40 40" fill="none" xmlns="http://www.w3.org/2000/svg">
<path fill-rule="evenodd" clip-rule="evenodd" d="M12.084 16.6667C12.084 12.2945 15.6284 8.75004 20.0007 8.75004C24.3729 8.75004 27.9174 12.2945 27.9174 16.6667C27.9174 21.039 24.3729 24.5834 20.0007 24.5834C15.6284 24.5834 12.084 21.039 12.084 16.6667ZM20.0007 11.25C17.0091 11.25 14.584 13.6752 14.584 16.6667C14.584 19.6583 17.0091 22.0834 20.0007 22.0834C22.9922 22.0834 25.4174 19.6583 25.4174 16.6667C25.4174 13.6752 22.9922 11.25 20.0007 11.25Z" fill="currentColor"/>
<path fill-rule="evenodd" clip-rule="evenodd" d="M5.87463 14.7615C6.46518 7.59711 12.4521 2.08337 19.6407 2.08337H20.3606C27.5493 2.08337 33.5362 7.59711 34.1268 14.7615C34.444 18.61 33.2552 22.4315 30.8108 25.421L22.8223 35.1906C21.364 36.9741 18.6374 36.9742 17.1791 35.1906L9.19063 25.421C6.7462 22.4315 5.5574 18.61 5.87463 14.7615ZM19.6407 4.58337C13.7532 4.58337 8.84984 9.09917 8.36618 14.9668C8.10216 18.1699 9.09157 21.3504 11.126 23.8385L19.1144 33.6081C19.5725 34.1683 20.4289 34.1683 20.887 33.6081L28.8754 23.8385C30.9098 21.3504 31.8992 18.1699 31.6352 14.9668C31.1515 9.09917 26.2482 4.58337 20.3606 4.58337H19.6407Z" fill="currentColor"/>
</svg>
