<svg viewBox="0 0 350 30" fill="none" xmlns="http://www.w3.org/2000/svg">
<path d="M49.363 18.9016C49.363 20.1102 49.0976 21.1841 48.5709 22.1274C48.04 23.0706 47.2887 23.8097 46.3128 24.3446C45.3369 24.8795 44.1813 25.1449 42.8502 25.1449C41.519 25.1449 40.3675 24.8795 39.3957 24.3446C38.4239 23.8097 37.6725 23.0747 37.1376 22.1274C36.6027 21.1841 36.3373 20.1061 36.3373 18.9016V0.396057H31.0862V19.3385C31.0862 21.4128 31.5721 23.2421 32.5439 24.8183C33.5157 26.3944 34.8837 27.6235 36.6476 28.5055C38.4116 29.3875 40.4778 29.8285 42.8502 29.8285C45.2103 29.8285 47.2724 29.3875 49.0364 28.5055C50.8004 27.6235 52.1723 26.3944 53.1483 24.8183C54.1242 23.2421 54.6142 21.4169 54.6142 19.3385V0.396057H49.363V18.9016Z" fill="currentColor"/>
<path d="M81.3311 20.1592H81.0779L67.4275 0.396057H62.7276V29.3916H67.9828V9.64065H68.2237L81.8824 29.3916H86.5537V0.396057H81.3311V20.1592Z" fill="currentColor"/>
<path d="M117.673 0.396057L107.464 29.3916H113.071L115.468 22.2417H126.366L128.767 29.3916H134.373L124.157 0.396057H117.673ZM116.884 18.0237L120.8 6.34542H121.025L124.949 18.0237H116.884Z" fill="currentColor"/>
<path d="M159.069 17.6602C160.596 16.9171 161.756 15.8677 162.544 14.5039C163.332 13.14 163.728 11.5271 163.728 9.66923C163.728 7.8195 163.34 6.19843 162.56 4.80602C161.78 3.41362 160.633 2.33154 159.118 1.55571C157.603 0.783971 155.733 0.396057 153.504 0.396057H142.63V29.3916H147.881V18.775H153.226L158.922 29.3916H164.782L158.514 17.9052C158.706 17.8277 158.889 17.7501 159.069 17.6602ZM147.885 4.7856H152.699C154.01 4.7856 155.084 4.97752 155.913 5.35727C156.742 5.7411 157.362 6.29642 157.766 7.02733C158.171 7.75824 158.375 8.64024 158.375 9.66923C158.375 10.6982 158.175 11.5639 157.775 12.2662C157.375 12.9685 156.758 13.5034 155.929 13.8669C155.1 14.2303 154.03 14.4099 152.728 14.4099H147.885V4.7856Z" fill="currentColor"/>
<path d="M170.347 4.79785H179.31V29.3916H184.516V4.79785H193.479V0.396057H170.347V4.79785Z" fill="currentColor"/>
<path d="M230.376 15.5737C229.567 14.9122 228.657 14.365 227.644 13.9322C226.627 13.4994 225.574 13.1523 224.479 12.8991L221.76 12.2213C221.164 12.0784 220.576 11.9069 219.992 11.6987C219.408 11.4904 218.873 11.2332 218.391 10.9269C217.909 10.6207 217.53 10.245 217.252 9.79992C216.974 9.35484 216.835 8.83218 216.835 8.22785C216.844 7.50102 217.056 6.85586 217.472 6.28828C217.889 5.7207 218.485 5.27562 219.269 4.94487C220.053 4.61413 220.992 4.4508 222.087 4.4508C223.642 4.4508 224.912 4.79379 225.888 5.48387C226.864 6.17395 227.419 7.13761 227.55 8.37076H232.605C232.577 6.73744 232.119 5.29195 231.233 4.03022C230.347 2.76848 229.126 1.7844 227.575 1.06982C226.019 0.355247 224.214 0 222.16 0C220.131 0 218.314 0.355247 216.709 1.06982C215.104 1.7844 213.838 2.78073 212.907 4.06288C211.976 5.34504 211.511 6.84361 211.511 8.55043C211.511 10.6288 212.201 12.2907 213.585 13.5402C214.969 14.7897 216.852 15.7207 219.241 16.3373L222.54 17.1866C223.577 17.452 224.488 17.7501 225.263 18.0849C226.043 18.4198 226.648 18.8363 227.085 19.3303C227.517 19.8244 227.742 20.4532 227.75 21.2046C227.742 22.0335 227.489 22.7603 226.999 23.3769C226.509 23.9935 225.831 24.4753 224.965 24.8224C224.104 25.1654 223.099 25.341 221.956 25.341C220.862 25.341 219.873 25.1776 218.991 24.8469C218.109 24.5161 217.395 24.018 216.848 23.3442C216.301 22.6746 215.99 21.8334 215.913 20.8248H210.747C210.821 22.7521 211.323 24.3814 212.254 25.7248C213.185 27.0641 214.475 28.0849 216.133 28.7832C217.791 29.4814 219.747 29.8326 222.001 29.8326C224.324 29.8326 226.301 29.4733 227.938 28.7505C229.575 28.0278 230.829 27.0233 231.699 25.737C232.568 24.4508 233.001 22.9563 233.001 21.2577C233.001 20.0041 232.764 18.9057 232.295 17.9747C231.821 17.0314 231.184 16.2352 230.376 15.5737Z" fill="currentColor"/>
<path d="M257.828 1.64146C256.313 0.812554 254.443 0.396057 252.213 0.396057H241.339V29.3916H246.59V19.5916H252.14C254.377 19.5916 256.26 19.1792 257.787 18.3544C259.314 17.5296 260.474 16.3944 261.254 14.9489C262.038 13.5034 262.43 11.8538 262.43 9.99181C262.43 8.15024 262.042 6.50876 261.262 5.05918C260.49 3.6137 259.343 2.47446 257.828 1.64146ZM256.484 12.7276C256.084 13.5198 255.468 14.1445 254.639 14.5978C253.81 15.051 252.74 15.2756 251.437 15.2756H246.595V4.7856H251.409C252.719 4.7856 253.793 5.0061 254.63 5.44301C255.463 5.87993 256.084 6.49242 256.484 7.27642C256.884 8.06041 257.085 8.9669 257.085 9.99589C257.085 11.0249 256.884 11.9355 256.484 12.7276Z" fill="currentColor"/>
<path d="M275.925 0.396057L265.717 29.3916H271.323L273.72 22.2417H284.618L287.019 29.3916H292.626L282.409 0.396057H275.925ZM275.137 18.0237L279.053 6.34542H279.277L283.201 18.0237H275.137Z" fill="currentColor"/>
<path d="M306.427 6.1168C307.644 5.32872 309.04 4.93264 310.617 4.93264C311.503 4.93264 312.332 5.05106 313.103 5.29197C313.871 5.53289 314.557 5.88813 315.161 6.3618C315.766 6.83546 316.272 7.40712 316.676 8.08086C317.08 8.75461 317.358 9.52635 317.509 10.3961H322.805C322.589 8.78319 322.127 7.34587 321.425 6.08413C320.723 4.82239 319.828 3.75665 318.742 2.88282C317.656 2.009 316.419 1.3475 315.035 0.894258C313.646 0.441012 312.148 0.216431 310.531 0.216431C308.003 0.216431 305.737 0.804426 303.736 1.9845C301.735 3.16457 300.155 4.86731 298.995 7.08862C297.836 9.30994 297.252 11.9845 297.252 15.1082C297.252 18.2238 297.828 20.8943 298.979 23.1197C300.131 25.3491 301.707 27.0519 303.708 28.2319C305.708 29.412 307.983 30 310.531 30C312.258 30 313.83 29.7428 315.247 29.2283C316.664 28.7138 317.901 27.9951 318.955 27.0764C320.012 26.1576 320.87 25.0919 321.523 23.8832C322.176 22.6746 322.605 21.3843 322.805 20.0041L317.509 19.9755C317.35 20.8248 317.06 21.5803 316.639 22.2417C316.219 22.9032 315.704 23.4586 315.096 23.9118C314.488 24.3651 313.802 24.7081 313.042 24.9367C312.283 25.1695 311.47 25.2838 310.6 25.2838C309.032 25.2838 307.644 24.9 306.431 24.1282C305.218 23.3565 304.267 22.2172 303.573 20.7023C302.879 19.1874 302.532 17.3214 302.532 15.1041C302.532 12.9237 302.875 11.078 303.565 9.5631C304.255 8.05636 305.21 6.90487 306.427 6.1168Z" fill="currentColor"/>
<path d="M335.512 24.9857V17.0723H348.142V12.6705H335.512V4.79785H349.118V0.396057H330.261V29.3916H349.232V24.9857H335.512Z" fill="currentColor"/>
<path d="M12.1193 13.4054L23.332 0.396057H16.9172L6.08826 13.1523L8.46474 16.962L17.1172 29.3916H23.43L12.1193 13.4054Z" fill="currentColor"/>
<path d="M5.25112 13.7199V13.1523V0.396057H0V29.3916H5.25112V21.719V20.7554V13.7199Z" fill="currentColor"/>
</svg>
