<svg viewBox="0 0 32 32" fill="none" xmlns="http://www.w3.org/2000/svg">
<path d="M14.492 22.1745C14.4147 22.0992 14.084 21.8147 13.812 21.5498C12.1013 19.9963 9.30133 15.9437 8.44667 13.8225C8.30933 13.5004 8.01867 12.686 8 12.2509C8 11.8339 8.096 11.4364 8.29067 11.0572C8.56267 10.5843 8.99067 10.2051 9.496 9.99724C9.84667 9.86345 10.896 9.65563 10.9147 9.65563C12.0627 9.4478 13.928 9.3335 15.9893 9.3335C17.9533 9.3335 19.7427 9.4478 20.908 9.61796C20.9267 9.63744 22.2307 9.84527 22.6773 10.0726C23.4933 10.4895 24 11.3039 24 12.1755V12.2509C23.98 12.8185 23.4733 14.0122 23.4547 14.0122C22.5987 16.019 19.936 19.9781 18.1667 21.5692C18.1667 21.5692 17.712 22.0174 17.428 22.2122C17.02 22.5162 16.5147 22.6668 16.0093 22.6668C15.4453 22.6668 14.92 22.4967 14.492 22.1745Z" fill="currentColor"/>
</svg>
