<svg viewBox="0 0 40 40" fill="none" xmlns="http://www.w3.org/2000/svg">
<path fill-rule="evenodd" clip-rule="evenodd" d="M9.73266 16.4272C12.7115 22.9137 18.0123 28.0707 24.6019 30.865L24.6227 30.8738L25.8958 31.4412C27.5168 32.1635 29.4222 31.6505 30.4615 30.212L32.5855 27.2725C32.7152 27.0929 32.6818 26.8432 32.5094 26.7041L28.8015 23.7128C28.6171 23.5641 28.3461 23.5988 28.2051 23.789L26.762 25.7363C26.4115 26.2093 25.7786 26.3736 25.2423 26.1309C20.315 23.901 16.3555 19.9415 14.1256 15.0142C13.8829 14.4779 14.0472 13.845 14.5201 13.4945L16.4674 12.0514C16.6577 11.9104 16.6923 11.6393 16.5436 11.455L13.5519 7.74661C13.4129 7.57425 13.1633 7.54078 12.9837 7.6704L10.0282 9.80399C8.58025 10.8493 8.07033 12.7707 8.80943 14.3965L9.73166 16.4251C9.73199 16.4258 9.73232 16.4265 9.73266 16.4272ZM23.6154 33.1621C16.4554 30.1228 10.6964 24.5178 7.45969 17.4682L7.45775 17.464L6.53358 15.4311C5.30174 12.7215 6.15162 9.51919 8.56493 7.77699L11.5204 5.6434C12.7773 4.73605 14.5243 4.97039 15.4977 6.17688L18.4894 9.88529C19.5303 11.1756 19.2879 13.0729 17.9559 14.06L16.8401 14.8869C18.725 18.5442 21.7123 21.5315 25.3696 23.4164L26.1965 22.3005C27.1836 20.9686 29.0809 20.7261 30.3712 21.7671L34.0791 24.7584C35.2859 25.732 35.52 27.4797 34.6119 28.7366L32.4879 31.6762C30.7557 34.0736 27.5801 34.9286 24.8783 33.7248L23.6154 33.1621Z" fill="currentColor"/>
</svg>
