<svg viewBox="0 0 325 325" fill="none" xmlns="http://www.w3.org/2000/svg">
	<path
		d="M291.958 145.438L273.541 124.042C270.02 119.979 267.176 112.396 267.176 106.979V83.9587C267.176 69.6045 255.395 57.8232 241.041 57.8232H218.02C212.739 57.8232 205.02 54.9795 200.958 51.4587L179.562 33.042C170.218 25.0524 154.916 25.0524 145.437 33.042L124.176 51.5941C120.114 54.9795 112.395 57.8232 107.114 57.8232H83.6868C69.3327 57.8232 57.5514 69.6045 57.5514 83.9587V107.115C57.5514 112.396 54.7077 119.979 51.3223 124.042L33.041 145.573C25.1868 154.917 25.1868 170.084 33.041 179.427L51.3223 200.959C54.7077 205.021 57.5514 212.604 57.5514 217.886V241.042C57.5514 255.396 69.3327 267.177 83.6868 267.177H107.114C112.395 267.177 120.114 270.021 124.176 273.542L145.572 291.959C154.916 299.948 170.218 299.948 179.697 291.959L201.093 273.542C205.156 270.021 212.739 267.177 218.156 267.177H241.176C255.531 267.177 267.312 255.396 267.312 241.042V218.021C267.312 212.74 270.156 205.021 273.676 200.959L292.093 179.563C299.947 170.219 299.947 154.782 291.958 145.438ZM218.833 136.907L153.426 202.313C151.531 204.209 148.958 205.292 146.249 205.292C143.541 205.292 140.968 204.209 139.072 202.313L106.301 169.542C102.374 165.615 102.374 159.115 106.301 155.188C110.229 151.261 116.729 151.261 120.656 155.188L146.249 180.782L204.479 122.552C208.406 118.625 214.906 118.625 218.833 122.552C222.76 126.479 222.76 132.979 218.833 136.907Z"
		fill="currentColor"
	/>
</svg>
