<svg width="24" height="24" viewBox="0 0 24 24" fill="none" xmlns="http://www.w3.org/2000/svg">
<g clip-path="url(#clip0_268_4936)">
<path d="M11.4133 0.0138797C5.0233 0.315788 -0.0190413 5.59459 5.40561e-05 11.9398C0.00584053 13.8724 0.476281 15.6965 1.30606 17.3088L0.0318797 23.4428C-0.0369794 23.7745 0.264496 24.065 0.597219 23.9869L6.65682 22.5629C8.21396 23.332 9.96263 23.7763 11.8131 23.8044C18.3443 23.9031 23.79 18.7592 23.9937 12.2836C24.2118 5.34147 18.4358 -0.317875 11.4133 0.0138797ZM18.6441 18.4934C16.8694 20.2538 14.5096 21.2232 12.0001 21.2232C10.5303 21.2232 9.12359 20.8961 7.81816 20.2515L6.9745 19.8342L3.259 20.7072L4.04075 16.9414L3.62528 16.1338C2.94769 14.8177 2.60397 13.3937 2.60397 11.9031C2.60397 9.41322 3.58131 7.07314 5.35602 5.31277C7.11453 3.5679 9.51303 2.58297 12.0001 2.58297C14.5096 2.58297 16.8694 3.55241 18.6441 5.31277C20.4188 7.07314 21.3961 9.41322 21.3961 11.9031C21.3961 14.37 20.4026 16.7486 18.6441 18.4934Z" fill="currentColor"/>
<path d="M17.8235 14.4839L15.4991 13.8221C15.1936 13.7349 14.8643 13.821 14.6415 14.046L14.0733 14.6205C13.8337 14.8627 13.4698 14.9408 13.1527 14.8134C12.0532 14.372 9.74039 12.3321 9.14959 11.3116C8.97889 11.0171 9.00724 10.6492 9.21671 10.3806L9.71319 9.74349C9.90762 9.49381 9.9487 9.15919 9.82024 8.87048L8.84233 6.67677C8.60797 6.15158 7.93096 5.99833 7.48887 6.36912C6.84021 6.91324 6.0706 7.74033 5.97686 8.65639C5.81195 10.2715 6.51038 12.308 9.15132 14.7531C12.2025 17.5776 14.6462 17.9513 16.2369 17.569C17.139 17.352 17.8606 16.483 18.3154 15.7713C18.6255 15.2869 18.3802 14.6423 17.8235 14.4839Z" fill="currentColor"/>
</g>
<defs>
<clipPath id="clip0_268_4936">
<rect width="24" height="24" fill="white"/>
</clipPath>
</defs>
</svg>
